<?xml version="1.0" standalone="no"?>
<!DOCTYPE svg PUBLIC "-//W3C//DTD SVG 20010904//EN"
 "http://www.w3.org/TR/2001/REC-SVG-20010904/DTD/svg10.dtd">
<svg version="1.0" xmlns="http://www.w3.org/2000/svg"
 width="700.000000pt" height="700.000000pt" viewBox="0 0 700.000000 700.000000"
 preserveAspectRatio="xMidYMid meet">
<metadata>
Created by potrace 1.11, written by Peter Selinger 2001-2013
</metadata>
<g transform="translate(0.000000,700.000000) scale(0.100000,-0.100000)"
fill="#000000" stroke="none">
<path d="M2588 6035 c-1 -1 -25 -5 -53 -9 -108 -12 -271 -51 -360 -84 -97 -37
-152 -60 -186 -79 -19 -11 -54 -31 -79 -45 -25 -14 -97 -57 -161 -96 -65 -38
-139 -82 -165 -98 -27 -15 -71 -40 -99 -55 -27 -16 -89 -48 -137 -71 l-87 -42
5 -40 c15 -141 21 -620 10 -811 -10 -171 -7 -280 9 -325 38 -106 120 -202 243
-284 81 -54 145 -84 372 -177 331 -135 415 -162 600 -189 168 -24 174 -23 245
20 36 22 67 40 69 40 2 0 62 35 133 77 250 149 393 203 549 207 l81 2 68 68
c136 135 324 234 535 282 47 10 69 20 72 32 3 9 3 62 2 117 -2 55 -5 183 -8
285 -3 102 -8 298 -12 435 -3 138 -10 254 -15 259 -4 5 -62 41 -128 80 -67 39
-204 122 -306 185 -328 200 -467 256 -743 300 -97 16 -441 28 -454 16z m-421
-823 c27 -41 38 -120 23 -166 -13 -41 -53 -76 -85 -76 -29 0 -71 34 -92 73
-34 67 -8 186 47 214 32 16 78 -4 107 -45z m1297 21 c23 -25 29 -39 40 -99 7
-35 -14 -100 -43 -135 -68 -81 -166 -4 -160 125 3 53 29 109 58 126 32 19 79
11 105 -17z m-596 -285 c103 -64 180 -246 139 -328 -16 -32 -53 -39 -62 -11
-9 29 -40 35 -68 15 -13 -10 -43 -48 -67 -86 -24 -37 -49 -68 -55 -68 -7 0
-25 19 -40 43 -50 76 -96 127 -115 127 -11 0 -27 -11 -36 -25 -20 -31 -35 -32
-60 -2 -27 29 -29 76 -8 140 28 86 76 154 134 190 78 49 165 51 238 5z m25
-796 c-10 -15 -39 -37 -64 -50 -55 -29 -125 -23 -181 13 -69 45 -67 53 23 144
l81 80 81 -80 80 -80 -20 -27z"/>
<path d="M818 5440 c-79 -43 -124 -148 -99 -232 33 -108 134 -194 319 -268 53
-21 98 -38 100 -36 14 14 17 421 4 457 -6 15 -24 32 -44 39 -18 8 -35 16 -38
19 -13 15 -81 32 -140 37 -53 4 -72 1 -102 -16z"/>
<path d="M4448 5415 c-1 -1 -26 -5 -55 -8 -54 -6 -97 -23 -89 -36 16 -26 51
-275 60 -431 4 -64 5 -64 103 -20 117 53 215 135 250 208 11 23 18 60 18 98 0
51 -5 67 -28 98 -33 42 -63 59 -132 74 -62 13 -122 21 -127 17z"/>
<path d="M4344 4508 l3 -181 59 -17 c71 -19 93 -31 161 -81 l52 -39 -25 58
c-54 122 -173 345 -194 362 -3 3 -16 22 -29 43 -12 20 -24 37 -26 37 -3 0 -3
-82 -1 -182z"/>
<path d="M1131 4452 c-135 -322 -206 -539 -262 -797 -7 -33 -14 -64 -15 -70
-1 -5 -5 -28 -9 -50 -3 -22 -8 -47 -10 -55 -2 -8 -7 -37 -11 -65 -3 -27 -8
-59 -10 -70 -13 -63 -15 -197 -4 -229 21 -63 132 -138 380 -255 63 -30 123
-65 134 -78 43 -55 87 -87 191 -138 91 -45 240 -102 314 -121 162 -41 231 -56
306 -69 133 -23 134 -24 184 -31 25 -3 57 -8 71 -10 107 -18 586 -26 670 -11
19 3 58 9 85 12 273 38 457 131 650 329 106 108 143 174 180 321 33 131 83
232 146 294 38 38 51 59 57 93 29 160 -151 352 -408 435 -161 52 -368 30 -540
-57 -31 -16 -115 -75 -187 -132 -159 -125 -227 -166 -403 -245 -128 -58 -199
-91 -366 -169 -39 -18 -100 -46 -135 -62 -112 -52 -298 -141 -400 -192 -54
-28 -99 -48 -99 -46 0 2 24 21 53 42 28 21 54 41 57 45 28 35 413 279 440 279
21 0 8 16 -38 45 -32 21 -59 51 -87 96 -43 70 -71 107 -140 179 -34 36 -64 53
-141 84 -126 50 -241 107 -324 160 -87 57 -199 168 -238 238 -43 76 -69 184
-66 280 1 43 1 78 0 78 0 0 -12 -26 -25 -58z"/>
<path d="M4208 4249 c-155 -24 -356 -143 -438 -259 -25 -35 -25 -37 13 -44
167 -30 321 -120 395 -229 59 -88 88 -212 69 -300 -3 -15 -25 -74 -48 -130
-43 -104 -82 -225 -94 -287 -3 -19 -10 -44 -15 -55 -4 -11 -17 -44 -29 -73
-11 -29 -45 -91 -76 -138 -30 -46 -55 -87 -55 -90 0 -5 79 2 130 11 14 2 50 7
80 11 30 3 57 7 60 9 3 1 30 6 61 9 31 4 67 9 80 11 13 3 38 7 54 10 17 3 41
7 55 10 14 3 41 7 60 10 33 5 105 18 175 31 277 50 537 144 559 200 6 16 -46
141 -100 235 -49 88 -103 158 -201 261 -92 98 -126 156 -185 323 -59 165 -103
249 -159 306 -63 63 -150 120 -225 146 -77 27 -109 31 -166 22z"/>
<path d="M5810 3744 c0 -30 -67 -159 -100 -192 -21 -20 -46 -34 -71 -38 -35
-6 -39 -10 -40 -38 -7 -171 15 -331 65 -480 24 -71 77 -179 101 -204 9 -10 7
-40 -12 -140 -34 -180 -76 -320 -128 -423 -30 -58 -27 -104 11 -149 48 -56
133 -72 404 -72 74 0 155 3 180 7 139 21 191 38 233 81 24 24 27 34 27 95 0
45 12 114 34 201 55 215 62 292 39 393 -18 81 -51 146 -151 300 -245 376 -304
497 -314 638 -2 43 -3 43 -49 20 -43 -22 -134 -21 -176 1 -40 20 -53 20 -53 0z"/>
<path d="M620 3510 c-215 -60 -369 -143 -465 -253 -169 -193 -84 -464 222
-708 139 -111 350 -223 583 -309 139 -52 205 -85 455 -226 231 -131 373 -191
525 -220 14 -3 41 -9 60 -14 19 -4 58 -12 85 -16 28 -4 57 -9 65 -10 104 -22
347 -21 510 2 65 9 221 54 288 82 134 56 316 183 361 251 14 22 14 23 -4 18
-11 -3 -61 -9 -112 -12 -51 -3 -101 -8 -113 -10 -33 -6 -326 -18 -460 -18
-136 0 -338 9 -410 18 -60 8 -220 34 -245 39 -213 47 -375 112 -586 236 -169
100 -262 142 -410 183 -222 63 -384 152 -501 275 -120 127 -157 262 -104 377
34 75 125 162 247 236 69 42 94 62 95 78 1 25 -1 25 -86 1z"/>
<path d="M4370 2487 c0 -7 -14 -32 -30 -54 -33 -44 -94 -80 -149 -85 -31 -4
-33 -7 -36 -46 -7 -85 -83 -166 -186 -196 -42 -13 -44 -15 -41 -49 5 -55 -29
-111 -99 -162 -31 -24 -33 -28 -36 -96 -3 -87 -17 -135 -50 -170 l-24 -26 49
-21 c26 -12 83 -37 125 -56 238 -110 456 -190 548 -200 268 -31 406 -36 556
-22 113 10 266 52 313 86 35 25 62 82 57 118 -8 48 -64 181 -108 255 -59 100
-145 182 -259 247 -81 47 -120 80 -258 218 -158 157 -245 228 -317 258 -43 17
-55 18 -55 1z"/>
<path d="M6852 2122 c-7 -29 -21 -70 -31 -91 -21 -41 -93 -135 -126 -164 -44
-40 -127 -68 -240 -81 -83 -10 -139 -18 -165 -22 -14 -2 -50 -6 -80 -10 -85
-9 -204 -40 -257 -68 -93 -48 -136 -109 -148 -211 -14 -111 -63 -174 -180
-231 -104 -51 -254 -86 -419 -100 -39 -3 -87 -7 -106 -9 -19 -2 -116 -4 -215
-5 l-180 -1 100 -35 c104 -36 224 -69 291 -80 21 -3 42 -8 46 -10 4 -3 58 -11
120 -19 107 -14 393 -14 474 -1 168 28 305 89 357 158 26 35 36 68 52 163 13
78 30 133 52 168 48 77 149 127 356 176 210 50 303 105 353 207 24 49 26 63
21 123 -4 44 -16 91 -35 132 l-29 64 -11 -53z"/>
</g>
</svg>
